# xmcd
#
# Track frame offsets:
#	150
#	5332
#	34205
#	83398
#	115505
#	156108
#	191543
#	216347
#	259774
#
# Disc length: 3777 seconds
#
# Revision: 1
# Processed by: cddbd v1.5.2PL0 Copyright (c) Steve Scherf et al.
# Submitted via: audiograbber 1.83.01
#
DISCID=670ebf09
DTITLE=Grateful Dead - 94-03-30 The Omni, Atlanta GA
DYEAR=1900
DGENRE=
TTITLE0=Tuning
TTITLE1=Here Comes Sunshine
TTITLE2=Feel Like A Stranger
TTITLE3=Jack-A-Roe
TTITLE4=The Same Thing
TTITLE5=Lazy River Road
TTITLE6=El Paso
TTITLE7=New Speedway Boogie
TTITLE8=Promised Land
EXTD=
EXTT0=
EXTT1=
EXTT2=
EXTT3=
EXTT4=
EXTT5=
EXTT6=
EXTT7=
EXTT8=
PLAYORDER=
